<svg id="svg" version="1.1" xmlns="http://www.w3.org/2000/svg" xmlns:xlink="http://www.w3.org/1999/xlink" width="400" height="400" viewBox="0, 0, 400,400"><g id="svgg"><path id="path0" d="M56.200 0.800 C 56.064 1.020,54.532 1.200,52.795 1.200 C 51.059 1.200,49.224 1.360,48.719 1.555 C 48.213 1.750,46.810 2.123,45.600 2.383 C 44.390 2.643,42.950 3.047,42.400 3.281 C 41.850 3.515,41.040 3.839,40.600 4.000 C 40.160 4.161,39.350 4.479,38.800 4.706 C 38.250 4.933,37.170 5.349,36.400 5.629 C 35.630 5.910,34.522 6.468,33.938 6.870 C 33.354 7.271,32.679 7.600,32.438 7.600 C 32.197 7.600,32.000 7.736,32.000 7.902 C 32.000 8.069,31.415 8.458,30.700 8.768 C 29.575 9.254,26.632 11.098,25.400 12.088 C 25.180 12.265,24.297 12.950,23.439 13.610 C 19.160 16.899,14.115 22.375,10.483 27.672 C 9.778 28.702,9.200 29.737,9.200 29.972 C 9.200 30.207,9.065 30.401,8.900 30.403 C 8.735 30.405,8.395 30.810,8.145 31.303 C 7.895 31.796,7.136 33.280,6.458 34.600 C 5.780 35.920,5.219 37.220,5.213 37.488 C 5.206 37.756,4.840 38.617,4.400 39.400 C 3.960 40.183,3.600 41.143,3.600 41.532 C 3.600 41.921,3.449 42.411,3.264 42.620 C 3.080 42.829,2.704 44.080,2.429 45.400 C 2.154 46.720,1.765 48.113,1.565 48.495 C 1.364 48.877,1.200 50.081,1.200 51.171 C 1.200 52.261,1.020 53.264,0.800 53.400 C 0.276 53.724,0.243 323.677,0.767 324.220 C 0.969 324.429,1.233 328.020,1.353 332.200 C 1.590 340.438,1.876 343.588,2.439 344.180 C 2.637 344.389,2.800 344.963,2.800 345.456 C 2.800 345.949,2.980 346.464,3.200 346.600 C 3.420 346.736,3.600 347.214,3.600 347.662 C 3.600 348.110,3.923 348.954,4.318 349.538 C 4.713 350.122,5.478 351.500,6.018 352.600 C 6.558 353.700,7.135 354.660,7.300 354.733 C 7.465 354.807,7.600 355.212,7.600 355.633 C 7.600 356.055,7.738 356.400,7.906 356.400 C 8.074 356.400,8.513 357.096,8.882 357.947 C 9.250 358.799,9.788 359.751,10.076 360.064 C 10.364 360.378,10.780 360.914,11.000 361.257 C 12.905 364.225,14.057 365.617,17.474 369.079 C 19.633 371.266,22.120 373.584,23.000 374.228 C 23.880 374.873,25.003 375.763,25.495 376.206 C 25.987 376.650,27.067 377.370,27.895 377.806 C 28.723 378.243,29.749 378.915,30.175 379.300 C 30.602 379.685,31.172 380.000,31.442 380.000 C 31.712 380.000,31.993 380.141,32.067 380.314 C 32.197 380.621,36.643 382.855,39.800 384.200 C 40.680 384.575,41.760 385.037,42.200 385.228 C 42.640 385.418,44.669 386.113,46.709 386.772 L 50.418 387.971 132.109 388.032 C 179.541 388.067,214.387 387.942,215.200 387.732 C 216.574 387.379,217.651 384.800,216.425 384.800 C 216.191 384.800,216.000 384.557,216.000 384.259 C 216.000 383.962,215.460 383.154,214.800 382.463 C 214.140 381.772,213.600 381.052,213.600 380.863 C 213.600 380.674,213.060 379.954,212.400 379.263 C 211.740 378.572,211.200 377.865,211.200 377.692 C 211.200 377.519,210.840 377.117,210.400 376.800 C 209.960 376.483,209.600 375.918,209.600 375.545 C 209.600 375.172,209.465 374.807,209.300 374.733 C 209.135 374.660,208.460 373.566,207.800 372.301 C 207.140 371.037,206.465 370.002,206.300 370.001 C 206.135 370.001,206.000 369.655,206.000 369.233 C 206.000 368.812,205.864 368.407,205.698 368.333 C 205.532 368.260,204.768 366.940,204.000 365.400 C 203.232 363.860,202.468 362.540,202.302 362.467 C 202.136 362.393,202.000 361.988,202.000 361.567 C 202.000 361.145,201.820 360.800,201.600 360.800 C 201.380 360.800,201.200 360.440,201.200 360.000 C 201.200 359.560,201.020 359.200,200.800 359.200 C 200.580 359.200,200.400 358.840,200.400 358.400 C 200.400 357.960,200.220 357.600,200.000 357.600 C 199.780 357.600,199.600 357.240,199.600 356.800 C 199.600 356.006,199.333 356.000,164.024 356.000 C 140.737 356.000,128.362 355.862,128.200 355.600 C 128.038 355.338,115.529 355.200,91.976 355.200 C 68.259 355.200,56.000 355.064,56.000 354.800 C 56.000 354.580,55.728 354.400,55.395 354.400 C 55.062 354.400,54.387 354.192,53.895 353.938 C 52.018 352.967,51.593 352.800,51.005 352.800 C 50.672 352.800,50.400 352.620,50.400 352.400 C 50.400 352.180,50.122 352.000,49.783 352.000 C 49.444 352.000,48.780 351.640,48.308 351.200 C 47.836 350.760,47.213 350.400,46.925 350.400 C 46.636 350.400,46.400 350.259,46.400 350.086 C 46.400 349.914,45.882 349.467,45.249 349.093 C 43.931 348.314,42.561 347.036,40.000 344.196 C 39.010 343.098,38.071 342.243,37.914 342.295 C 37.757 342.348,37.732 342.123,37.857 341.795 C 37.983 341.468,37.886 341.200,37.643 341.200 C 37.399 341.200,37.200 340.855,37.200 340.433 C 37.200 340.012,37.065 339.607,36.900 339.533 C 36.468 339.341,34.800 336.028,34.800 335.362 C 34.800 335.053,34.620 334.800,34.400 334.800 C 34.180 334.800,34.000 334.271,34.000 333.624 C 34.000 332.977,33.820 332.336,33.600 332.200 C 33.342 332.041,33.200 324.863,33.200 311.976 C 33.200 298.925,33.061 292.000,32.800 292.000 C 32.534 292.000,32.400 259.075,32.400 194.024 C 32.400 129.137,32.535 95.964,32.800 95.800 C 33.058 95.641,33.200 88.537,33.200 75.800 C 33.200 63.063,33.342 55.959,33.600 55.800 C 33.820 55.664,34.000 55.124,34.000 54.600 C 34.000 54.076,34.180 53.536,34.400 53.400 C 34.620 53.264,34.800 52.713,34.800 52.176 C 34.800 51.639,34.980 51.200,35.200 51.200 C 35.420 51.200,35.600 50.840,35.600 50.400 C 35.600 49.960,35.780 49.600,36.000 49.600 C 36.220 49.600,36.400 49.240,36.400 48.800 C 36.400 48.360,36.550 48.000,36.732 48.000 C 36.915 48.000,37.320 47.505,37.632 46.900 C 37.944 46.295,38.294 45.710,38.410 45.600 C 38.526 45.490,39.241 44.590,40.000 43.600 C 40.758 42.610,41.563 41.681,41.789 41.535 C 42.015 41.389,42.590 40.939,43.068 40.535 C 45.155 38.766,48.958 36.291,50.400 35.762 C 50.730 35.641,51.313 35.375,51.695 35.171 C 52.077 34.967,52.662 34.800,52.995 34.800 C 53.328 34.800,53.600 34.620,53.600 34.400 C 53.600 34.180,54.140 34.000,54.800 34.000 C 55.460 34.000,56.000 33.820,56.000 33.600 C 56.000 33.345,59.200 33.200,64.800 33.200 C 70.400 33.200,73.600 33.055,73.600 32.800 C 73.600 32.536,87.600 32.400,114.800 32.400 C 142.000 32.400,156.000 32.536,156.000 32.800 C 156.000 33.022,157.063 33.200,158.388 33.200 C 160.906 33.200,163.288 34.177,164.304 35.627 C 164.587 36.030,165.050 36.595,165.334 36.880 C 165.617 37.166,166.107 37.985,166.422 38.700 C 166.737 39.415,167.131 40.000,167.298 40.000 C 167.464 40.000,167.600 40.439,167.600 40.976 C 167.600 41.513,167.780 42.064,168.000 42.200 C 168.220 42.336,168.400 43.157,168.400 44.024 C 168.400 44.891,168.580 45.600,168.800 45.600 C 169.045 45.600,169.200 47.525,169.200 50.576 C 169.200 53.463,169.368 55.657,169.600 55.800 C 169.858 55.959,170.000 62.937,170.000 75.424 C 170.000 88.075,170.139 94.800,170.400 94.800 C 170.656 94.800,170.800 98.333,170.800 104.600 C 170.800 110.867,170.944 114.400,171.200 114.400 C 171.420 114.400,171.600 114.996,171.600 115.725 C 171.600 116.496,171.934 117.408,172.400 117.908 C 172.840 118.380,173.200 118.935,173.200 119.142 C 173.200 119.348,173.804 120.031,174.543 120.659 C 179.804 125.130,180.001 125.200,187.335 125.200 C 191.245 125.200,193.600 125.350,193.600 125.600 C 193.600 125.862,202.067 126.000,218.200 126.000 C 234.333 126.000,242.800 126.138,242.800 126.400 C 242.800 126.641,244.459 126.800,246.976 126.800 C 249.329 126.800,251.261 126.975,251.400 127.200 C 251.536 127.420,251.999 127.600,252.429 127.600 C 252.859 127.600,253.523 127.759,253.905 127.953 C 254.287 128.148,255.083 128.532,255.674 128.807 C 261.710 131.619,262.000 133.258,262.000 164.544 C 262.000 190.970,262.240 199.053,263.032 199.357 C 263.532 199.549,265.019 199.149,267.400 198.181 C 269.677 197.255,275.166 195.600,275.958 195.600 C 276.395 195.600,276.864 195.420,277.000 195.200 C 277.136 194.980,277.856 194.800,278.600 194.800 C 279.344 194.800,280.064 194.620,280.200 194.400 C 280.336 194.180,281.056 194.000,281.800 194.000 C 282.544 194.000,283.264 193.820,283.400 193.600 C 283.536 193.380,284.436 193.200,285.400 193.200 C 286.364 193.200,287.264 193.020,287.400 192.800 C 287.536 192.580,288.616 192.400,289.800 192.400 C 290.984 192.400,292.064 192.220,292.200 192.000 C 292.336 191.780,292.842 191.594,293.324 191.587 C 295.548 191.555,295.600 191.313,295.600 181.056 C 295.600 175.019,295.455 171.600,295.200 171.600 C 294.937 171.600,294.800 162.000,294.800 143.600 C 294.800 125.200,294.663 115.600,294.400 115.600 C 294.180 115.600,294.000 115.240,294.000 114.800 C 294.000 114.360,293.820 114.000,293.600 114.000 C 293.380 114.000,293.200 113.640,293.200 113.200 C 293.200 112.760,293.020 112.400,292.800 112.400 C 292.580 112.400,292.400 112.040,292.400 111.600 C 292.400 111.160,292.220 110.800,292.000 110.800 C 291.780 110.800,291.600 110.509,291.600 110.154 C 291.600 109.438,289.574 105.477,289.100 105.267 C 288.935 105.193,288.800 104.956,288.800 104.739 C 288.800 104.358,286.511 100.807,286.003 100.400 C 285.866 100.290,285.481 99.801,285.149 99.314 C 284.267 98.021,281.301 94.611,279.000 92.244 C 277.900 91.113,276.190 89.200,275.200 87.994 C 273.485 85.904,257.073 69.084,250.864 63.052 C 249.249 61.483,240.519 52.820,231.464 43.800 C 222.409 34.779,213.650 26.205,212.000 24.745 C 210.350 23.285,207.828 20.945,206.396 19.545 C 204.963 18.145,202.535 15.920,201.000 14.600 C 199.464 13.280,198.003 12.020,197.753 11.800 C 197.503 11.580,196.894 11.130,196.400 10.800 C 195.906 10.470,195.299 10.014,195.051 9.787 C 194.803 9.560,193.970 8.936,193.200 8.400 C 192.430 7.864,191.551 7.185,191.247 6.889 C 190.944 6.594,189.999 6.050,189.147 5.682 C 188.296 5.313,187.600 4.874,187.600 4.706 C 187.600 4.538,187.370 4.400,187.090 4.400 C 186.809 4.400,185.504 3.866,184.190 3.213 C 182.875 2.559,181.316 2.019,180.724 2.013 C 180.132 2.006,179.536 1.820,179.400 1.600 C 179.264 1.380,177.734 1.200,176.000 1.200 C 174.266 1.200,172.736 1.020,172.600 0.800 C 172.258 0.247,56.542 0.247,56.200 0.800 M299.408 219.587 C 299.268 219.814,297.914 220.000,296.400 220.000 C 294.886 220.000,293.536 220.180,293.400 220.400 C 293.264 220.620,292.454 220.800,291.600 220.800 C 290.746 220.800,289.936 220.980,289.800 221.200 C 289.664 221.420,288.854 221.600,288.000 221.600 C 287.146 221.600,286.336 221.780,286.200 222.000 C 286.064 222.220,285.524 222.400,285.000 222.400 C 284.476 222.400,283.936 222.580,283.800 222.800 C 283.664 223.020,283.124 223.200,282.600 223.200 C 282.076 223.200,281.536 223.380,281.400 223.600 C 281.264 223.820,280.724 224.000,280.200 224.000 C 279.676 224.000,279.136 224.180,279.000 224.400 C 278.864 224.620,278.409 224.800,277.989 224.800 C 277.568 224.800,276.583 225.160,275.800 225.600 C 275.017 226.040,274.111 226.400,273.788 226.400 C 273.465 226.400,273.200 226.580,273.200 226.800 C 273.200 227.020,272.914 227.200,272.564 227.200 C 271.791 227.200,265.245 230.510,262.928 232.072 C 262.008 232.693,261.108 233.200,260.928 233.200 C 260.748 233.201,260.077 233.651,259.438 234.200 C 258.799 234.750,258.136 235.200,257.966 235.200 C 257.796 235.200,257.419 235.425,257.129 235.700 C 256.838 235.975,255.520 237.008,254.200 237.996 C 249.096 241.815,241.940 248.978,238.001 254.210 C 237.012 255.525,236.100 256.690,235.975 256.800 C 235.563 257.162,233.200 260.739,233.200 261.000 C 233.200 261.141,232.658 262.043,231.996 263.005 C 231.335 263.967,229.978 266.430,228.983 268.477 C 227.987 270.525,226.999 272.513,226.786 272.895 C 226.574 273.277,226.400 273.862,226.400 274.195 C 226.400 274.528,226.220 274.800,226.000 274.800 C 225.780 274.800,225.600 275.340,225.600 276.000 C 225.600 276.660,225.420 277.200,225.200 277.200 C 224.980 277.200,224.800 277.549,224.800 277.976 C 224.800 278.403,224.620 278.864,224.400 279.000 C 224.180 279.136,224.000 279.676,224.000 280.200 C 224.000 280.724,223.820 281.264,223.600 281.400 C 223.380 281.536,223.200 282.076,223.200 282.600 C 223.200 283.124,223.020 283.664,222.800 283.800 C 222.580 283.936,222.400 284.566,222.400 285.200 C 222.400 285.834,222.220 286.464,222.000 286.600 C 221.780 286.736,221.600 287.456,221.600 288.200 C 221.600 288.944,221.420 289.664,221.200 289.800 C 220.980 289.936,220.800 290.811,220.800 291.744 C 220.800 292.677,220.636 293.611,220.435 293.820 C 219.537 294.756,218.744 320.104,219.587 320.947 C 219.814 321.174,220.000 322.483,220.000 323.856 C 220.000 325.229,220.180 326.464,220.400 326.600 C 220.620 326.736,220.800 327.546,220.800 328.400 C 220.800 329.254,220.980 330.064,221.200 330.200 C 221.420 330.336,221.600 331.157,221.600 332.024 C 221.600 332.891,221.780 333.600,222.000 333.600 C 222.220 333.600,222.400 334.219,222.400 334.976 C 222.400 335.733,222.580 336.464,222.800 336.600 C 223.020 336.736,223.200 337.276,223.200 337.800 C 223.200 338.324,223.380 338.864,223.600 339.000 C 223.820 339.136,224.000 339.676,224.000 340.200 C 224.000 340.724,224.180 341.264,224.400 341.400 C 224.620 341.536,224.800 341.997,224.800 342.424 C 224.800 342.851,224.980 343.200,225.200 343.200 C 225.420 343.200,225.600 343.472,225.600 343.805 C 225.600 344.138,225.759 344.723,225.953 345.105 C 226.148 345.487,226.488 346.250,226.710 346.800 C 229.092 352.706,233.905 360.885,238.126 366.200 C 241.938 371.000,257.619 385.600,258.961 385.600 C 259.048 385.600,260.303 386.320,261.752 387.200 C 263.200 388.080,264.496 388.800,264.631 388.800 C 264.766 388.800,265.365 389.148,265.961 389.572 C 266.558 389.997,267.846 390.645,268.823 391.012 C 270.442 391.619,274.785 393.561,276.495 394.442 C 276.877 394.639,277.541 394.800,277.971 394.800 C 278.401 394.800,278.864 394.980,279.000 395.200 C 279.136 395.420,279.676 395.600,280.200 395.600 C 280.724 395.600,281.264 395.780,281.400 396.000 C 281.536 396.220,282.076 396.400,282.600 396.400 C 283.124 396.400,283.648 396.554,283.764 396.741 C 283.880 396.929,285.375 397.302,287.087 397.569 C 288.799 397.837,290.513 398.223,290.895 398.428 C 291.277 398.633,292.582 398.800,293.795 398.800 C 295.008 398.800,296.000 398.980,296.000 399.200 C 296.000 399.459,301.000 399.600,310.200 399.600 C 319.400 399.600,324.400 399.459,324.400 399.200 C 324.400 398.980,325.144 398.800,326.054 398.800 C 326.963 398.800,328.358 398.633,329.154 398.428 C 329.949 398.224,331.680 397.833,333.000 397.561 C 334.320 397.289,335.580 396.950,335.800 396.808 C 336.020 396.666,337.190 396.317,338.400 396.032 C 339.610 395.746,341.195 395.172,341.923 394.756 C 342.650 394.340,343.488 394.000,343.785 394.000 C 344.250 394.000,345.540 393.438,348.495 391.950 C 348.877 391.757,349.370 391.600,349.590 391.600 C 350.269 391.600,357.999 387.205,361.800 384.658 C 367.766 380.661,376.903 372.132,380.826 366.900 C 381.692 365.745,383.104 363.855,383.966 362.700 C 385.925 360.071,389.586 353.742,391.231 350.137 C 391.918 348.632,392.822 346.708,393.240 345.862 C 393.658 345.016,394.000 344.065,394.000 343.748 C 394.000 343.431,394.259 342.773,394.575 342.286 C 395.898 340.247,398.800 329.318,398.800 326.373 C 398.800 325.288,398.980 324.400,399.200 324.400 C 399.459 324.400,399.600 319.675,399.600 311.024 C 399.600 302.537,399.454 297.557,399.200 297.400 C 398.980 297.264,398.797 296.398,398.793 295.476 C 398.783 293.395,397.860 288.126,396.991 285.200 C 396.632 283.990,396.151 282.280,395.923 281.400 C 395.458 279.604,395.238 279.009,394.040 276.304 C 393.578 275.262,393.200 274.244,393.200 274.042 C 393.200 273.841,392.848 272.984,392.418 272.138 C 391.988 271.292,390.828 268.942,389.841 266.915 C 384.678 256.321,373.301 243.269,363.267 236.429 C 361.800 235.428,360.510 234.509,360.400 234.386 C 359.670 233.567,355.400 231.096,350.200 228.484 C 346.022 226.385,346.057 226.400,345.405 226.400 C 345.072 226.400,344.800 226.220,344.800 226.000 C 344.800 225.780,344.451 225.600,344.024 225.600 C 343.597 225.600,343.136 225.420,343.000 225.200 C 342.864 224.980,342.313 224.800,341.776 224.800 C 341.239 224.800,340.800 224.620,340.800 224.400 C 340.800 224.180,340.260 224.000,339.600 224.000 C 338.940 224.000,338.400 223.820,338.400 223.600 C 338.400 223.380,337.871 223.200,337.224 223.200 C 336.577 223.200,335.936 223.020,335.800 222.800 C 335.664 222.580,335.124 222.400,334.600 222.400 C 334.076 222.400,333.536 222.220,333.400 222.000 C 333.264 221.780,332.544 221.600,331.800 221.600 C 331.056 221.600,330.336 221.420,330.200 221.200 C 330.064 220.980,329.009 220.800,327.856 220.800 C 326.703 220.800,325.589 220.637,325.380 220.437 C 324.429 219.528,299.939 218.727,299.408 219.587 M324.800 280.000 L 324.800 295.600 340.000 295.600 L 355.200 295.600 355.200 310.200 L 355.200 324.800 340.000 324.800 L 324.800 324.800 324.800 340.000 L 324.800 355.200 310.200 355.200 L 295.600 355.200 295.600 340.000 L 295.600 324.800 280.000 324.800 L 264.400 324.800 264.400 310.200 L 264.400 295.600 279.520 295.600 C 290.747 295.600,294.764 295.476,295.120 295.120 C 295.476 294.764,295.600 290.747,295.600 279.520 L 295.600 264.400 310.200 264.400 L 324.800 264.400 324.800 280.000 " stroke="none" fill="#848484" fill-rule="evenodd"></path><path id="path1" d="" stroke="none" fill="#888484" fill-rule="evenodd"></path><path id="path2" d="" stroke="none" fill="#888484" fill-rule="evenodd"></path><path id="path3" d="" stroke="none" fill="#888484" fill-rule="evenodd"></path><path id="path4" d="" stroke="none" fill="#888484" fill-rule="evenodd"></path></g></svg>